<svg fill="none" viewBox="0 0 24 24" xmlns="http://www.w3.org/2000/svg">
  <path d="M12 16.998a5 5 0 1 0 0-10 5 5 0 0 0 0 10z" fill="#fff"/>
  <path d="M12 7h8.659a9.997 9.997 0 0 0-17.319.001L7.67 14.5l.004-.001A4.994 4.994 0 0 1 12 7z"
        fill="url(#paint0_linear_29_517)"/>
  <path d="M12 15.958a3.958 3.958 0 1 0 0-7.916 3.958 3.958 0 0 0 0 7.916z" fill="#1A73E8"/>
  <path d="M16.33 14.501L12 22a9.998 9.998 0 0 0 8.658-14.999H12l-.002.004a4.993 4.993 0 0 1 4.332 7.496z"
        fill="url(#paint1_linear_29_517)"/>
  <path d="M7.67 14.501L3.34 7.003A9.997 9.997 0 0 0 12 22l4.33-7.499-.002-.003a4.995 4.995 0 0 1-8.658.003z"
        fill="url(#paint2_linear_29_517)"/>
  <defs>
    <linearGradient gradientUnits="userSpaceOnUse" id="paint0_linear_29_517" x1="3.34" x2="20.659" y1="8.25" y2="8.25">
      <stop stop-color="#D93025"/>
      <stop offset="1" stop-color="#EA4335"/>
    </linearGradient>
    <linearGradient gradientUnits="userSpaceOnUse" id="paint1_linear_29_517" x1="10.634" x2="19.293" y1="21.866"
                    y2="6.868">
      <stop stop-color="#FCC934"/>
      <stop offset="1" stop-color="#FBBC04"/>
    </linearGradient>
    <linearGradient gradientUnits="userSpaceOnUse" id="paint2_linear_29_517" x1="13.082" x2="4.423" y1="21.376"
                    y2="6.378">
      <stop stop-color="#1E8E3E"/>
      <stop offset="1" stop-color="#34A853"/>
    </linearGradient>
  </defs>
</svg>
